<svg width="265" height="62" viewBox="0 0 265 62" fill="none" xmlns="http://www.w3.org/2000/svg">
<g clip-path="url(#clip0_402_4722)">
<rect width="265" height="62" fill="white"/>
<path d="M16.896 38.768C17.824 38.768 18.784 38.752 19.776 38.72C20.768 38.688 21.728 38.64 22.656 38.576C23.584 38.544 24.432 38.496 25.2 38.432C26 38.368 26.672 38.32 27.216 38.288C27.6 38.256 27.888 38.288 28.08 38.384C28.304 38.512 28.432 38.944 28.464 39.68L28.512 43.376C28.512 44.016 28.4 44.416 28.176 44.576C27.984 44.736 27.68 44.864 27.264 44.96C26.688 45.088 25.952 45.232 25.056 45.392C24.192 45.584 23.232 45.744 22.176 45.872C21.152 46.032 20.064 46.16 18.912 46.256C17.792 46.384 16.688 46.448 15.6 46.448C13.232 46.448 11.2 46.144 9.504 45.536C7.84 44.928 6.448 43.968 5.328 42.656C4.24 41.376 3.44 39.744 2.928 37.76C2.416 35.744 2.16 33.328 2.16 30.512C2.16 24.944 3.312 20.768 5.616 17.984C7.952 15.2 11.408 13.808 15.984 13.808C20.592 13.808 24 14.96 26.208 17.264C28.448 19.568 29.568 23.088 29.568 27.824V31.76C29.568 32.496 29.44 33.008 29.184 33.296C28.928 33.552 28.448 33.68 27.744 33.68H10.608C10.64 35.504 11.136 36.816 12.096 37.616C13.056 38.384 14.656 38.768 16.896 38.768ZM21.36 27.296C21.36 25.056 20.96 23.488 20.16 22.592C19.36 21.664 17.968 21.2 15.984 21.2C13.968 21.2 12.56 21.696 11.76 22.688C10.992 23.68 10.592 25.216 10.56 27.296H21.36ZM52.3286 16.016C52.4886 15.376 52.6806 14.976 52.9046 14.816C53.1286 14.624 53.5926 14.528 54.2966 14.528H59.5766C60.2486 14.528 60.6806 14.656 60.8726 14.912C61.0966 15.136 61.1286 15.584 60.9686 16.256L54.6326 43.328C54.5686 43.616 54.4886 43.888 54.3926 44.144C54.2966 44.432 54.1366 44.688 53.9126 44.912C53.7206 45.136 53.4486 45.312 53.0966 45.44C52.7446 45.568 52.2806 45.632 51.7046 45.632H41.7686C41.1926 45.632 40.7286 45.568 40.3766 45.44C40.0246 45.312 39.7366 45.136 39.5126 44.912C39.3206 44.688 39.1766 44.432 39.0806 44.144C38.9846 43.888 38.9046 43.616 38.8406 43.328L32.5046 16.256C32.3446 15.584 32.3606 15.136 32.5526 14.912C32.7766 14.656 33.2246 14.528 33.8966 14.528H39.1766C39.8806 14.528 40.3446 14.624 40.5686 14.816C40.7926 14.976 40.9846 15.376 41.1446 16.016L45.9446 38.72H47.5286L52.3286 16.016ZM78.7241 38.768C79.6521 38.768 80.6121 38.752 81.6041 38.72C82.5961 38.688 83.5561 38.64 84.4841 38.576C85.4121 38.544 86.2601 38.496 87.0281 38.432C87.8281 38.368 88.5001 38.32 89.0441 38.288C89.4281 38.256 89.7161 38.288 89.9081 38.384C90.1321 38.512 90.2601 38.944 90.2921 39.68L90.3401 43.376C90.3401 44.016 90.2281 44.416 90.0041 44.576C89.8121 44.736 89.5081 44.864 89.0921 44.96C88.5161 45.088 87.7801 45.232 86.8841 45.392C86.0201 45.584 85.0601 45.744 84.0041 45.872C82.9801 46.032 81.8921 46.16 80.7401 46.256C79.6201 46.384 78.5161 46.448 77.4281 46.448C75.0601 46.448 73.0281 46.144 71.3321 45.536C69.6681 44.928 68.2761 43.968 67.1561 42.656C66.0681 41.376 65.2681 39.744 64.7561 37.76C64.2441 35.744 63.9881 33.328 63.9881 30.512C63.9881 24.944 65.1401 20.768 67.4441 17.984C69.7801 15.2 73.2361 13.808 77.8121 13.808C82.4201 13.808 85.8281 14.96 88.0361 17.264C90.2761 19.568 91.3961 23.088 91.3961 27.824V31.76C91.3961 32.496 91.2681 33.008 91.0121 33.296C90.7561 33.552 90.2761 33.68 89.5721 33.68H72.4361C72.4681 35.504 72.9641 36.816 73.9241 37.616C74.8841 38.384 76.4841 38.768 78.7241 38.768ZM83.1881 27.296C83.1881 25.056 82.7881 23.488 81.9881 22.592C81.1881 21.664 79.7961 21.2 77.8121 21.2C75.7961 21.2 74.3881 21.696 73.5881 22.688C72.8201 23.68 72.4201 25.216 72.3881 27.296H83.1881ZM98.8928 45.68C98.4448 45.68 98.1248 45.6 97.9328 45.44C97.7408 45.28 97.6448 44.96 97.6448 44.48V15.728C97.6448 15.248 97.7408 14.928 97.9328 14.768C98.1248 14.608 98.4448 14.528 98.8928 14.528H104.989C105.437 14.528 105.757 14.608 105.949 14.768C106.141 14.928 106.237 15.248 106.237 15.728V17.264C106.621 17.104 107.149 16.896 107.821 16.64C108.493 16.384 109.245 16.112 110.077 15.824C110.909 15.536 111.789 15.248 112.717 14.96C113.677 14.64 114.637 14.368 115.597 14.144C115.725 14.112 115.869 14.096 116.029 14.096C116.221 14.064 116.381 14.096 116.509 14.192C116.669 14.256 116.797 14.4 116.893 14.624C117.021 14.848 117.085 15.168 117.085 15.584V21.152C117.085 21.568 117.021 21.904 116.893 22.16C116.797 22.384 116.653 22.576 116.461 22.736C116.301 22.864 116.125 22.96 115.933 23.024C115.773 23.056 115.629 23.088 115.501 23.12C114.541 23.312 113.581 23.52 112.621 23.744C111.693 23.968 110.813 24.192 109.981 24.416C109.181 24.608 108.445 24.8 107.773 24.992C107.133 25.152 106.621 25.28 106.237 25.376V44.48C106.237 44.96 106.141 45.28 105.949 45.44C105.757 45.6 105.437 45.68 104.989 45.68H98.8928ZM126.026 14.528C126.666 14.528 127.13 14.656 127.418 14.912C127.706 15.168 127.914 15.568 128.042 16.112L133.322 37.52H134.762L139.994 16.208C140.282 15.088 141.082 14.528 142.394 14.528H146.954C147.626 14.528 148.042 14.656 148.202 14.912C148.394 15.168 148.41 15.6 148.25 16.208L138.122 57.392C137.994 57.904 137.786 58.256 137.498 58.448C137.242 58.64 136.89 58.736 136.442 58.736H131.402C130.858 58.736 130.426 58.624 130.106 58.4C129.786 58.208 129.706 57.824 129.866 57.248L132.698 45.68H128.906C128.33 45.68 127.85 45.568 127.466 45.344C127.114 45.152 126.858 44.736 126.698 44.096L119.834 16.352C119.674 15.744 119.69 15.296 119.882 15.008C120.074 14.688 120.538 14.528 121.274 14.528H126.026ZM176.228 20.72C176.228 21.136 176.196 21.456 176.132 21.68C176.068 21.872 175.972 22.016 175.844 22.112C175.716 22.208 175.556 22.256 175.364 22.256C175.204 22.256 175.028 22.24 174.836 22.208C174.228 22.144 173.492 22.064 172.628 21.968C171.764 21.872 170.852 21.776 169.892 21.68C168.964 21.584 168.052 21.504 167.156 21.44C166.26 21.376 165.476 21.344 164.804 21.344C163.012 21.344 161.828 21.552 161.252 21.968C160.708 22.352 160.436 22.96 160.436 23.792C160.436 24.144 160.516 24.448 160.676 24.704C160.868 24.928 161.172 25.136 161.588 25.328C162.036 25.488 162.644 25.648 163.412 25.808C164.18 25.968 165.14 26.144 166.292 26.336C168.372 26.656 170.1 27.072 171.476 27.584C172.884 28.064 174.004 28.688 174.836 29.456C175.7 30.224 176.308 31.168 176.66 32.288C177.044 33.408 177.236 34.752 177.236 36.32C177.236 38.144 176.948 39.696 176.372 40.976C175.796 42.256 174.964 43.296 173.876 44.096C172.788 44.928 171.46 45.52 169.892 45.872C168.324 46.256 166.564 46.448 164.612 46.448C163.78 46.448 162.868 46.4 161.876 46.304C160.916 46.208 159.956 46.096 158.996 45.968C158.036 45.84 157.124 45.696 156.26 45.536C155.428 45.408 154.708 45.296 154.1 45.2C153.652 45.104 153.3 44.96 153.044 44.768C152.788 44.608 152.676 44.144 152.708 43.376L152.852 39.392C152.884 38.4 153.3 37.952 154.1 38.048C154.676 38.112 155.396 38.192 156.26 38.288C157.124 38.384 158.004 38.464 158.9 38.528C159.828 38.624 160.724 38.704 161.588 38.768C162.452 38.832 163.188 38.864 163.796 38.864C165.812 38.864 167.156 38.672 167.828 38.288C168.532 37.936 168.884 37.344 168.884 36.512C168.884 36.16 168.82 35.872 168.692 35.648C168.564 35.392 168.324 35.168 167.972 34.976C167.62 34.784 167.108 34.608 166.436 34.448C165.764 34.256 164.884 34.064 163.796 33.872C161.78 33.552 160.036 33.168 158.564 32.72C157.092 32.272 155.876 31.68 154.916 30.944C153.956 30.208 153.236 29.28 152.756 28.16C152.308 27.04 152.084 25.648 152.084 23.984C152.084 22.16 152.404 20.608 153.044 19.328C153.684 18.048 154.548 17.008 155.636 16.208C156.756 15.376 158.052 14.768 159.524 14.384C160.996 14 162.548 13.808 164.18 13.808C165.012 13.808 165.924 13.856 166.916 13.952C167.94 14.048 168.948 14.16 169.94 14.288C170.932 14.416 171.876 14.56 172.772 14.72C173.668 14.88 174.404 15.008 174.98 15.104C175.396 15.168 175.716 15.296 175.94 15.488C176.196 15.68 176.308 16.176 176.276 16.976L176.228 20.72ZM208.652 36.08C208.652 37.008 208.716 37.68 208.844 38.096C208.972 38.544 209.26 38.864 209.708 39.056C209.836 39.12 210.012 39.216 210.236 39.344C210.492 39.504 210.62 39.856 210.62 40.4V44.768C210.62 45.12 210.556 45.392 210.428 45.584C210.3 45.808 210.14 45.984 209.948 46.112C209.756 46.24 209.548 46.32 209.324 46.352C209.132 46.384 208.972 46.4 208.844 46.4C207.819 46.368 206.94 46.288 206.204 46.16C205.5 46.064 204.876 45.92 204.332 45.728C203.788 45.568 203.292 45.36 202.844 45.104C202.396 44.848 201.964 44.576 201.548 44.288C200.524 44.704 199.468 45.072 198.38 45.392C197.452 45.648 196.412 45.888 195.26 46.112C194.14 46.336 193.052 46.448 191.996 46.448C188.892 46.448 186.556 45.52 184.988 43.664C183.452 41.808 182.684 39.312 182.684 36.176C182.684 34.416 182.924 32.96 183.404 31.808C183.884 30.624 184.588 29.68 185.516 28.976C186.444 28.24 187.58 27.696 188.924 27.344C190.268 26.96 191.804 26.704 193.532 26.576L200.3 26.144V24.608C200.3 23.776 199.996 23.104 199.388 22.592C198.812 22.048 198.076 21.776 197.18 21.776C196.38 21.776 195.5 21.792 194.54 21.824C193.612 21.856 192.684 21.904 191.756 21.968C190.828 22 189.932 22.048 189.068 22.112C188.204 22.144 187.468 22.176 186.86 22.208C186.572 22.208 186.316 22.208 186.092 22.208C185.868 22.208 185.66 22.144 185.468 22.016C185.308 21.888 185.18 21.696 185.084 21.44C184.988 21.152 184.94 20.736 184.94 20.192L184.844 17.12C184.812 16.288 184.94 15.728 185.228 15.44C185.548 15.152 185.964 14.976 186.476 14.912C187.148 14.816 187.948 14.704 188.876 14.576C189.804 14.448 190.78 14.336 191.804 14.24C192.828 14.112 193.852 14.016 194.876 13.952C195.9 13.856 196.828 13.808 197.66 13.808C199.42 13.808 200.972 14 202.316 14.384C203.692 14.736 204.844 15.344 205.772 16.208C206.7 17.04 207.404 18.144 207.884 19.52C208.396 20.864 208.652 22.528 208.652 24.512V36.08ZM194.588 32.768C193.5 32.832 192.636 33.104 191.996 33.584C191.388 34.032 191.084 34.816 191.084 35.936C191.084 38.144 191.948 39.248 193.676 39.248C194.316 39.248 195.02 39.2 195.788 39.104C196.556 39.04 197.276 38.944 197.948 38.816C198.748 38.688 199.532 38.528 200.3 38.336V32.528L194.588 32.768ZM218.518 11.12C218.07 11.12 217.75 11.04 217.558 10.88C217.366 10.72 217.27 10.4 217.27 9.92V3.776C217.27 3.296 217.366 2.976 217.558 2.816C217.75 2.656 218.07 2.576 218.518 2.576H224.614C225.062 2.576 225.382 2.656 225.574 2.816C225.766 2.976 225.862 3.296 225.862 3.776V9.92C225.862 10.4 225.766 10.72 225.574 10.88C225.382 11.04 225.062 11.12 224.614 11.12H218.518ZM225.862 46.352C225.862 48.368 225.702 50.08 225.382 51.488C225.062 52.928 224.518 54.192 223.75 55.28C223.014 56.368 222.022 57.376 220.774 58.304C219.558 59.264 218.038 60.272 216.214 61.328C215.702 61.616 215.286 61.744 214.966 61.712C214.646 61.68 214.358 61.424 214.102 60.944L211.462 56.048C211.238 55.664 211.174 55.376 211.27 55.184C211.366 55.024 211.542 54.864 211.798 54.704C212.982 54.064 213.926 53.472 214.63 52.928C215.366 52.416 215.926 51.856 216.31 51.248C216.694 50.64 216.95 49.936 217.078 49.136C217.206 48.368 217.27 47.408 217.27 46.256V16.352C217.27 15.872 217.366 15.552 217.558 15.392C217.75 15.232 218.07 15.152 218.518 15.152H224.614C225.062 15.152 225.382 15.232 225.574 15.392C225.766 15.552 225.862 15.872 225.862 16.352V46.352ZM242.065 30.8C242.065 31.984 242.113 33.056 242.209 34.016C242.305 34.976 242.513 35.808 242.833 36.512C243.153 37.184 243.601 37.696 244.177 38.048C244.753 38.432 245.505 38.624 246.433 38.624C246.945 38.624 247.537 38.576 248.209 38.48C248.913 38.384 249.585 38.256 250.225 38.096C250.961 37.968 251.697 37.792 252.433 37.568V15.728C252.433 15.248 252.529 14.928 252.721 14.768C252.913 14.608 253.233 14.528 253.681 14.528H259.537C259.985 14.528 260.305 14.608 260.497 14.768C260.689 14.928 260.785 15.248 260.785 15.728V44.48C260.785 44.96 260.689 45.28 260.497 45.44C260.305 45.6 259.985 45.68 259.537 45.68H253.681C253.233 45.68 252.913 45.6 252.721 45.44C252.529 45.28 252.433 44.96 252.433 44.48V44.288C251.505 44.672 250.577 45.024 249.649 45.344C248.849 45.6 248.001 45.84 247.105 46.064C246.241 46.288 245.441 46.4 244.705 46.4C242.529 46.4 240.721 46.064 239.281 45.392C237.873 44.72 236.753 43.712 235.921 42.368C235.089 41.056 234.513 39.44 234.193 37.52C233.873 35.568 233.713 33.328 233.713 30.8V15.728C233.713 15.248 233.809 14.928 234.001 14.768C234.193 14.608 234.513 14.528 234.961 14.528H240.817C241.265 14.528 241.585 14.608 241.777 14.768C241.969 14.928 242.065 15.248 242.065 15.728V30.8Z" fill="black"/>
</g>
<defs>
<clipPath id="clip0_402_4722">
<rect width="265" height="62" fill="white"/>
</clipPath>
</defs>
</svg>
